<svg fill="none" height="33" viewBox="0 0 30 33" width="30" xmlns="http://www.w3.org/2000/svg" xmlns:xlink="http://www.w3.org/1999/xlink"><clipPath id="a"><path d="m.5.166992h29.2417v32.5833h-29.2417z"/></clipPath><g clip-path="url(#a)" fill="#718096"><path d="m29.5666 9.06648c-.2694-.85098-.8335-1.57795-1.5909-2.05025s-1.6584-.65895-2.5411-.5264c-.8827.13256-1.6892.57562-2.2745 1.24955-.5853.67394-.9109 1.53453-.9185 2.42712.0046.2154-.0477.4282-.1515.6169-.1039.1887-.2557.3467-.4402.4581l-.6333.3666c-.2798.1622-.4842.4284-.5685.7406-.0843.3123-.0417.6452.1185.9261.1652.2766.4313.4781.7423.562.311.084.6424.0438.9244-.112l.6333-.3667c.1859-.1083.3973-.1654.6125-.1654s.4265.0571.6125.1654c.6535.3733 1.4042.5413 2.1544.4821.7503-.0591 1.4654-.3426 2.0524-.8136s1.0186-1.1077 1.2388-1.8274c.2203-.7196.2189-1.48889-.0039-2.20772z"/><path d="m9.66667 19.5916c-.16518-.2766-.43136-.4781-.74234-.5621-.31098-.0839-.64241-.0438-.92433.1121l-.63333.3666c-.1865.1067-.39764.1629-.6125.1629-.21487 0-.42601-.0562-.6125-.1629-.56884-.3279-1.21396-.5003-1.87054-.5-.65658.0004-1.30151.1735-1.87001.502-.56851.3284-1.04056.8007-1.36875 1.3694-.328196.5687-.50097 1.2137-.50097 1.8703s.172774 1.3016.50097 1.8703c.32819.5686.80024 1.0409 1.36875 1.3694.5685.3285 1.21343.5016 1.87001.502.65658.0003 1.3017-.1721 1.87054-.5.56896-.3275 1.04079-.8002 1.36729-1.3697.32649-.5695.49594-1.2155.49104-1.872-.00463-.2164.04853-.43.154-.619s.25943-.3464.446-.456l.63333-.3667c.27655-.1651.47808-.4313.56204-.7423s.04379-.6424-.11203-.9243zm-.44167-7.9834-.63333-.3666c-.18563-.1101-.3384-.2678-.44245-.4568-.10404-.1891-.15557-.4025-.14922-.6182-.00131-.82488-.27453-1.62627-.77735-2.28012-.50283-.65386-1.2072-1.12369-2.00405-1.33673-.79685-.21305-1.64171-.15743-2.40375.15824s-1.39875.87379-1.81152 1.58791c-.412768.71413-.578572 1.54443-.471735 2.3623.106837.8179.480355 1.5778 1.062715 2.1619.58235.5841 1.34105.96 2.15861 1.0693s1.64836-.0539 2.36375-.4645c.18749-.1083.40017-.1652.61666-.1652.2165 0 .42918.0569.61667.1652l.63333.3667c.28192.1558.61336.196.92434.112s.57716-.2855.74233-.562c.08865-.141.14804-.2983.17465-.4627.0266-.1643.01988-.3324-.01977-.4941s-.11142-.3138-.21104-.4472-.22505-.2454-.36884-.3294zm4.0083-4.46664c.183.10949.3344.26455.4396.45004s.1604.39507.1604.60829v.73334c.0011.16519.0351.32852.1001.48041.0649.15189.1595.28929.2783.40415.1187.11486.2592.20491.4132.26471.1539.0599.3183.0885.4834.0841.3257-.0022.6373-.1332.8667-.36421.2295-.23106.3583-.5435.3583-.86916v-.73334c.0034-.21647.0637-.42824.1749-.61402.1112-.18577.2693-.33901.4585-.44431.6647-.36827 1.2002-.93186 1.5341-1.61451.3338-.68264.4499-1.45137.3325-2.20216-.0971-.62574-.3512-1.21668-.7385-1.71772-.3872-.50104-.895-.895852-1.4761-1.147628-.581-.251776-1.2163-.352313-1.8467-.292236-.6304.060078-1.2353.278812-1.7583.635808-.5231.356996-.9472.840626-1.2328 1.405786-.2856.56517-.4235 1.19346-.4007 1.82629.0227.63284.2054 1.2496.5309 1.79278.3255.54319.7832.99509 1.3306 1.31359zm14.625 12.34164c-.5675-.3276-1.2113-.5001-1.8666-.5001-.6554 0-1.2992.1725-1.8667.5001-.1859.1084-.3973.1654-.6125.1654s-.4266-.057-.6125-.1654l-.6333-.3666c-.2819-.1559-.6134-.196-.9244-.1121-.3109.084-.5771.2855-.7423.5621-.1558.2819-.196.6133-.112.9243.0839.311.2855.5772.562.7423l.6333.3667c.185.1087.3374.2649.4415.4525s.1559.3997.1502.6142c.001.6584.1754 1.3049.5056 1.8746.3302.5696.8045 1.0423 1.3753 1.3704.5708.3282 1.218.5003 1.8764.499s1.3049-.1759 1.8744-.5063c.5696-.3304 1.042-.8049 1.37-1.3758s.4998-1.2182.4983-1.8766-.1764-1.3048-.507-1.8742-.8053-1.0417-1.3763-1.3695zm-12.7416-7.1916c-.8241 0-1.6297.2443-2.3149.7022-.6852.4578-1.2193 1.1086-1.5346 1.8699-.3154.7614-.3979 1.5991-.2371 2.4074.1607.8083.5576 1.5507 1.1403 2.1334s1.3251.9796 2.1334 1.1403c.8082.1608 1.646.0783 2.4074-.2371.7613-.3153 1.4121-.8494 1.8699-1.5346.4579-.6852.7022-1.4908.7022-2.3149 0-1.105-.439-2.1649-1.2204-2.9463s-1.8412-1.2203-2.9462-1.2203zm1.8833 13.4833c-.1954-.101-.3602-.2523-.4775-.4384-.1172-.1861-.1825-.4001-.1892-.6199v-.7334c0-.3271-.1299-.6408-.3612-.8721s-.545-.3612-.8721-.3612c-.1651-.0033-.3293.0263-.4828.0872-.1536.0609-.2934.1519-.4114.2675s-.2117.2536-.2756.4059c-.064.1523-.0969.3159-.0969.4811v.7333c-.0048.214-.0649.4232-.1744.6072s-.2647.3365-.4506.4428c-.714.4135-1.2717 1.0509-1.5867 1.8135-.315.7625-.3698 1.6077-.1557 2.4046.2141.7968.685 1.5008 1.3397 2.0029.6548.5021 1.4568.7742 2.2819.7742s1.6272-.2721 2.2819-.7742c.6548-.5021 1.1256-1.2061 1.3397-2.0029.2141-.7969.1593-1.6421-.1557-2.4046-.315-.7626-.8727-1.4-1.5867-1.8135z"/></g></svg>